<svg xmlns="http://www.w3.org/2000/svg" version="1.1" xmlns:xlink="http://www.w3.org/1999/xlink" viewBox="0 0 200 200"><rect width="200" height="200" fill="url('#gradient')"></rect><defs><linearGradient id="gradient" gradientTransform="rotate(299 0.5 0.5)"><stop offset="0%" stop-color="#c9c9c9"></stop><stop offset="100%" stop-color="#000000"></stop></linearGradient></defs><g><g fill="#ff0000" transform="matrix(5.0005425935973955,0,0,5.0005425935973955,4.637386905260854,135.53322829620643)" stroke="#000000" stroke-width="0.6"><path d="M9.89-8.57L9.89-6.03L4.50-6.03L4.50-2.64L10.87-2.64L10.87 0L1.07 0L1.07-14.22L10.89-14.22L10.89-11.57L4.50-11.57L4.50-8.57L9.89-8.57ZM24.14-14.22L24.14 0L20.73 0L15.69-8.85L15.69 0L12.27 0L12.27-14.22L15.69-14.22L20.72-5.37L20.72-14.22L24.14-14.22ZM33.64-3.78L33.64-3.78Q33.64-4.53 33.11-4.95Q32.58-5.37 31.24-5.82Q29.90-6.27 29.05-6.69L29.05-6.69Q26.29-8.05 26.29-10.42L26.29-10.42Q26.29-11.60 26.98-12.50Q27.67-13.41 28.93-13.91Q30.19-14.41 31.76-14.41L31.76-14.41Q33.29-14.41 34.51-13.87Q35.72-13.32 36.40-12.31Q37.07-11.30 37.07-10L37.07-10L33.65-10Q33.65-10.87 33.12-11.35Q32.59-11.83 31.68-11.83L31.68-11.83Q30.76-11.83 30.23-11.42Q29.70-11.02 29.70-10.39L29.70-10.39Q29.70-9.84 30.28-9.40Q30.87-8.96 32.34-8.48Q33.82-8.01 34.77-7.46L34.77-7.46Q37.07-6.13 37.07-3.80L37.07-3.80Q37.07-1.93 35.66-0.87Q34.26 0.20 31.81 0.20L31.81 0.20Q30.08 0.20 28.68-0.42Q27.28-1.04 26.57-2.12Q25.86-3.20 25.86-4.61L25.86-4.61L29.30-4.61Q29.30-3.47 29.89-2.92Q30.48-2.38 31.81-2.38L31.81-2.38Q32.66-2.38 33.15-2.75Q33.64-3.12 33.64-3.78Z"></path></g></g></svg>